<?xml version="1.0" encoding="UTF-8" standalone="no"?>
<svg width="281px" height="281px" viewBox="0 0 281 281" version="1.1" xmlns="http://www.w3.org/2000/svg" xmlns:xlink="http://www.w3.org/1999/xlink" xmlns:sketch="http://www.bohemiancoding.com/sketch/ns">
    <!-- Generator: Sketch 3.2 (9961) - http://www.bohemiancoding.com/sketch -->
    <title>Oval 1</title>
    <desc>Created with Sketch.</desc>
    <defs></defs>
    <g id="Page-1" stroke="none" stroke-width="1" fill="none" fill-rule="evenodd" sketch:type="MSPage">
        <g id="Oval-1-+-Shape-+-You’re-all-done" sketch:type="MSLayerGroup" fill="#1E1E1E">
            <path d="M140.5,281 C218.096007,281 281,218.096007 281,140.5 C281,62.9039927 218.096007,0 140.5,0 C62.9039927,0 0,62.9039927 0,140.5 C0,218.096007 62.9039927,281 140.5,281 Z M197.398593,83.4838933 C195.416401,81.5017022 192.202301,81.5017022 190.22011,83.4838933 L120.452914,153.251813 L90.7793472,123.578969 C88.7978792,121.596778 85.5834176,121.596778 83.6015881,123.578969 L66.8534836,140.327435 C64.8712925,142.309265 64.8712925,145.523365 66.8534836,147.505556 L116.864215,197.515926 C117.855311,198.507383 119.154474,199.00275 120.453276,199.00275 C121.752439,199.00275 123.051602,198.507383 124.042336,197.515926 L214.146697,107.410118 C215.098742,106.458435 215.63316,105.167227 215.63316,103.82142 C215.633521,102.474889 215.098742,101.184404 214.146697,100.232359 L197.398593,83.4838933 Z" id="Oval-1" sketch:type="MSShapeGroup"></path>
        </g>
    </g>
</svg>