<?xml version="1.0" encoding="UTF-8" standalone="no"?>
<svg width="534px" height="450px" viewBox="0 0 534 450" version="1.1" xmlns="http://www.w3.org/2000/svg" xmlns:xlink="http://www.w3.org/1999/xlink" xmlns:sketch="http://www.bohemiancoding.com/sketch/ns">
    <!-- Generator: Sketch 3.2 (9961) - http://www.bohemiancoding.com/sketch -->
    <title>Glyph</title>
    <desc>Created with Sketch.</desc>
    <defs></defs>
    <g id="Page-1" stroke="none" stroke-width="1" fill="none" fill-rule="evenodd" sketch:type="MSPage">
        <path d="M192.753715,365.578078 L168.097051,299.513687 L64.4755811,299.513687 L142.668746,55.646354 L391.331254,55.646354 L469.524419,299.513687 L365.902949,299.513687 L341.246285,365.578078 L192.753715,365.578078 Z M38.7928709,449.235313 C17.8159567,449.235313 0.82545271,432.239296 0.82545271,411.273646 L0.82545271,335.04214 C0.82545271,321.934847 4.40447288,301.313592 8.819418,288.978945 L103.986096,23.0985414 C108.399831,10.7672735 122.60183,0.764687029 135.704446,0.764687029 L267,0.764687029 L398.295554,0.764687029 C411.39817,0.764687029 425.600169,10.7672735 430.013904,23.0985414 L525.180582,288.978945 C529.595527,301.313592 533.174547,321.934847 533.174547,335.04214 L533.174547,411.273646 C533.174547,432.239296 516.184043,449.235313 495.207129,449.235313 L267,449.235313 L38.7928709,449.235313 Z" id="Glyph" fill="#FFFFFF" sketch:type="MSShapeGroup"></path>
    </g>
</svg>