<?xml version="1.0" encoding="UTF-8" standalone="no"?>
<!DOCTYPE svg PUBLIC "-//W3C//DTD SVG 1.1//EN" "http://www.w3.org/Graphics/SVG/1.1/DTD/svg11.dtd">
<svg width="100%" height="100%" viewBox="0 0 50 50" version="1.1" xmlns="http://www.w3.org/2000/svg" xmlns:xlink="http://www.w3.org/1999/xlink" xml:space="preserve" style="fill-rule:evenodd;clip-rule:evenodd;stroke-linejoin:round;stroke-miterlimit:1.41421;">
    <g transform="matrix(1,0,0,1,-528,-2)">
        <g id="snooze-later" transform="matrix(0.318085,0,0,0.324566,526.218,74.2085)">
            <rect x="6.695" y="-222.182" width="154.047" height="150.971" style="fill:none;"/>
            <g>
                <g transform="matrix(6.30072,0,0,6.1724,83.7181,-146.697)">
                    <g transform="matrix(1,0,0,1,-12,-12)">
                        <path d="M12,2C6.5,2 2,6.5 2,12C2,17.5 6.5,22 12,22C17.5,22 22,17.5 22,12C22,6.5 17.5,2 12,2ZM16.2,16.2L11,13L11,7L12.5,7L12.5,12.2L17,14.9L16.2,16.2Z" style="fill-rule:nonzero;"/>
                    </g>
                </g>
            </g>
        </g>
    </g>
</svg>
