<?xml version="1.0" encoding="UTF-8" standalone="no"?>
<!DOCTYPE svg PUBLIC "-//W3C//DTD SVG 1.1//EN" "http://www.w3.org/Graphics/SVG/1.1/DTD/svg11.dtd">
<svg width="100%" height="100%" viewBox="0 0 50 50" version="1.1" xmlns="http://www.w3.org/2000/svg" xmlns:xlink="http://www.w3.org/1999/xlink" xml:space="preserve" style="fill-rule:evenodd;clip-rule:evenodd;stroke-linejoin:round;stroke-miterlimit:1.41421;">
    <g transform="matrix(1,0,0,1,-593,0)">
        <g id="snooze-evening" transform="matrix(0.318085,0,0,0.324566,590.942,72.392)">
            <rect x="6.695" y="-222.182" width="154.047" height="150.971" style="fill:none;"/>
            <clipPath id="_clip1">
                <rect x="6.695" y="-222.182" width="154.047" height="150.971"/>
            </clipPath>
            <g clip-path="url(#_clip1)">
                <g transform="matrix(3.14381,0,0,3.08104,-1131.62,-992.224)">
                    <g transform="matrix(-1.7116,1.04264,1.04264,1.7116,381.575,279.651)">
                        <g transform="matrix(1,0,0,1,-12,-12)">
                            <clipPath id="_clip2">
                                <rect x="0" y="0" width="24" height="24"/>
                            </clipPath>
                            <g clip-path="url(#_clip2)">
                                <path d="M9,2C7.95,2 6.95,2.16 6,2.46C10.06,3.73 13,7.52 13,12C13,16.48 10.06,20.27 6,21.54C6.95,21.84 7.95,22 9,22C14.52,22 19,17.52 19,12C19,6.48 14.52,2 9,2Z" style="fill-rule:nonzero;"/>
                                <rect x="0" y="0" width="24" height="24" style="fill:none;"/>
                            </g>
                        </g>
                    </g>
                    <g transform="matrix(0.0418575,0,0,0.0418575,397.865,259.923)">
                        <g transform="matrix(1,0,0,1,-221.886,-221.886)">
                            <g id="Layer_3">
                                <path d="M163.073,3.459C140.557,125.764 122.304,144.016 0,166.532C122.305,189.048 140.557,207.3 163.073,329.605C185.589,207.3 203.841,189.048 326.146,166.532C203.841,144.016 185.588,125.764 163.073,3.459Z" style="fill-rule:nonzero;"/>
                                <path d="M340.064,232.896C325.746,310.677 314.136,322.286 236.356,336.604C314.136,350.923 325.746,362.532 340.064,440.312C354.382,362.532 365.992,350.922 443.771,336.604C365.99,322.286 354.383,310.677 340.064,232.896Z" style="fill-rule:nonzero;"/>
                            </g>
                        </g>
                    </g>
                </g>
            </g>
        </g>
    </g>
</svg>
