<?xml version="1.0" encoding="UTF-8" standalone="no"?>
<!DOCTYPE svg PUBLIC "-//W3C//DTD SVG 1.1//EN" "http://www.w3.org/Graphics/SVG/1.1/DTD/svg11.dtd">
<svg width="100%" height="100%" viewBox="0 0 50 50" version="1.1" xmlns="http://www.w3.org/2000/svg" xmlns:xlink="http://www.w3.org/1999/xlink" xml:space="preserve" style="fill-rule:evenodd;clip-rule:evenodd;stroke-linejoin:round;stroke-miterlimit:1.41421;">
    <g transform="matrix(1,0,0,1,-1010,0)">
        <g id="snooze-mobile" transform="matrix(0.318085,0,0,0.324566,1008.67,72.9783)">
            <rect x="6.695" y="-222.182" width="154.047" height="150.971" style="fill:none;"/>
            <g>
                <g transform="matrix(6.30072,0,0,6.17492,83.7181,-146.697)">
                    <g transform="matrix(1,0,0,1,-12,-12)">
                        <rect x="0" y="0" width="24" height="24" style="fill:none;"/>
                        <path d="M17,1.01L7,1C5.9,1 5.01,1.9 5.01,3L5.01,21C5.01,22.1 5.9,23 7,23L17,23C18.1,23 19,22.1 19,21L19,3C19,1.9 18.1,1.01 17,1.01ZM17,19L7,19L7,5L17,5L17,19Z" style="fill-rule:nonzero;"/>
                    </g>
                </g>
            </g>
        </g>
    </g>
</svg>
