<?xml version="1.0" encoding="UTF-8" standalone="no"?>
<!DOCTYPE svg PUBLIC "-//W3C//DTD SVG 1.1//EN" "http://www.w3.org/Graphics/SVG/1.1/DTD/svg11.dtd">
<svg width="100%" height="100%" viewBox="0 0 50 50" version="1.1" xmlns="http://www.w3.org/2000/svg" xmlns:xlink="http://www.w3.org/1999/xlink" xml:space="preserve" style="fill-rule:evenodd;clip-rule:evenodd;stroke-linejoin:round;stroke-miterlimit:1.41421;">
    <g transform="matrix(1,0,0,1,-778,0)">
        <g id="snooze-nextweek" transform="matrix(0.318085,0,0,0.324566,776.583,72.6074)">
            <rect x="6.695" y="-222.182" width="154.047" height="150.971" style="fill:none;"/>
            <g>
                <g transform="matrix(6.30072,0,0,6.17492,83.7181,-152.673)">
                    <g transform="matrix(1,0,0,1,-12,-12)">
                        <path d="M20,7L16,7L16,5C16,4.45 15.78,3.95 15.41,3.59C15.05,3.22 14.55,3 14,3L10,3C8.9,3 8,3.9 8,5L8,7L4,7C2.9,7 2,7.9 2,9L2,20C2,21.1 2.9,22 4,22L20,22C21.1,22 22,21.1 22,20L22,9C22,7.9 21.1,7 20,7ZM10,5L14,5L14,7L10,7L10,5ZM11,18.5L10,17.5L13,14.5L10,11.5L11,10.5L15,14.5L11,18.5Z" style="fill:rgb(1,1,1);fill-rule:nonzero;"/>
                    </g>
                </g>
            </g>
        </g>
    </g>
</svg>
