<?xml version="1.0" encoding="UTF-8" standalone="no"?>
<!DOCTYPE svg PUBLIC "-//W3C//DTD SVG 1.1//EN" "http://www.w3.org/Graphics/SVG/1.1/DTD/svg11.dtd">
<svg width="100%" height="100%" viewBox="0 0 50 49" version="1.1" xmlns="http://www.w3.org/2000/svg" xmlns:xlink="http://www.w3.org/1999/xlink" xml:space="preserve" style="fill-rule:evenodd;clip-rule:evenodd;stroke-linejoin:round;stroke-miterlimit:1.41421;">
    <g transform="matrix(1,0,0,1,-661,0)">
        <g id="snooze-tomorrow" transform="matrix(0.318085,0,0,0.324566,658.983,72.1127)">
            <rect x="6.695" y="-222.182" width="154.047" height="150.971" style="fill:none;"/>
            <g>
                <g transform="matrix(6.30072,0,0,6.17492,83.7181,-146.697)">
                    <g transform="matrix(1,0,0,1,-12,-12)">
                        <rect x="0" y="0" width="24" height="24" style="fill:none;"/>
                        <path d="M20,3L4,3L4,13C4,15.21 5.79,17 8,17L14,17C16.21,17 18,15.21 18,13L18,10L20,10C21.11,10 22,9.11 22,8L22,5C22,3.89 21.11,3 20,3ZM20,8L18,8L18,5L20,5L20,8ZM2,21L20,21L20,19L2,19L2,21Z" style="fill-rule:nonzero;"/>
                    </g>
                </g>
            </g>
        </g>
    </g>
</svg>
