<?xml version="1.0" encoding="UTF-8" standalone="no"?>
<!DOCTYPE svg PUBLIC "-//W3C//DTD SVG 1.1//EN" "http://www.w3.org/Graphics/SVG/1.1/DTD/svg11.dtd">
<svg width="100%" height="100%" viewBox="0 0 50 50" version="1.1" xmlns="http://www.w3.org/2000/svg" xmlns:xlink="http://www.w3.org/1999/xlink" xml:space="preserve" style="fill-rule:evenodd;clip-rule:evenodd;stroke-linejoin:round;stroke-miterlimit:1.41421;">
    <g transform="matrix(1,0,0,1,-952,0)">
        <g id="snooze-pickdate" transform="matrix(0.318085,0,0,0.324566,950.18,72.9783)">
            <rect x="6.695" y="-222.182" width="154.047" height="150.971" style="fill:none;"/>
            <clipPath id="_clip1">
                <rect x="6.695" y="-222.182" width="154.047" height="150.971"/>
            </clipPath>
            <g clip-path="url(#_clip1)">
                <g>
                    <g transform="matrix(6.30072,0,0,6.17492,83.7181,-140.886)">
                        <g transform="matrix(1,0,0,1,-12,-12)">
                            <rect x="0" y="0" width="24" height="24" style="fill:none;"/>
                            <path d="M19,3L18,3L18,1L16,1L16,3L8,3L8,1L6,1L6,3L5,3C3.89,3 3.01,3.9 3.01,5L3,19C3,20.1 3.89,21 5,21L19,21C20.1,21 21,20.1 21,19L21,5C21,3.9 20.1,3 19,3ZM19,19L5,19L5,8L19,8L19,19ZM7,10L12,10L12,15L7,15L7,10Z" style="fill-rule:nonzero;"/>
                        </g>
                    </g>
                </g>
            </g>
        </g>
    </g>
</svg>
